<svg xmlns="http://www.w3.org/2000/svg" xmlns:xlink="http://www.w3.org/1999/xlink" width="333.044" height="552.696" viewBox="0 0 333.044 552.696">
  <defs>
    <linearGradient id="linear-gradient" x1="0.045" y1="0.967" x2="1.867" y2="0.303" gradientUnits="objectBoundingBox">
      <stop offset="0" stop-color="#ffee95"/>
      <stop offset="1" stop-color="#182b6f"/>
    </linearGradient>
  </defs>
  <path id="bishopArtboard_1" data-name="bishopArtboard 1" d="M180.215,590.617c-1.472-.324-2.944-.692-4.5-.957a3.3,3.3,0,0,1-2.782-2.443,25.462,25.462,0,0,1-.942-4.3,79.248,79.248,0,0,1,.265-18.1,9.126,9.126,0,0,1,4.813-7.492,24.342,24.342,0,0,0,2.473-1.59,2.149,2.149,0,0,0,.736-3.371,30.631,30.631,0,0,0-2.281-3.165c-1.089-1.472-2.223-3.032-3.209-4.637a6.329,6.329,0,0,1,.236-7.359,52.588,52.588,0,0,1,4.637-6.005c5.593-5.961,11.319-11.775,16.971-17.663s11.658-12.158,17.442-18.267a36.652,36.652,0,0,0,3.076-3.812,7.948,7.948,0,0,0,1.045-7.683,29.79,29.79,0,0,1-1.384-9.17A5.637,5.637,0,0,1,220,469.008c1.472-.795,2.826-1.634,4.224-2.473,7.816-4.666,7.919-4.489,11.334-13.336a238.009,238.009,0,0,0,9.361-33.236,421.306,421.306,0,0,0,7.271-44.731,241.4,241.4,0,0,0,1.56-36.474c-.221-5.888,0-4.975-5.019-5.726-9.126-1.472-18.281-2.605-27.142-5.372a65.04,65.04,0,0,1-13.38-5.372,16.073,16.073,0,0,1-3.724-2.752c-2.443-2.561-2.237-5.343.736-7.212s6.418-3.562,9.685-5.225c2.193-1.1,4.519-1.943,6.7-3.047,2.679-1.384,2.944-2.12,1.766-4.828a3.415,3.415,0,0,1,.927-4.21,12.835,12.835,0,0,1,2.591-1.825,27.7,27.7,0,0,1,10.421-3.356c1.472-.162,2.944-.53,4.5-.795a9.233,9.233,0,0,0,.236-1.472c-.088-6.3-.118-12.585-.339-18.885-.1-3.091-.633-3.621-3.783-4.254a7.816,7.816,0,0,1-4.342-2.561,6.462,6.462,0,0,1-.78-8.508c.78-1.236,1.781-2.34,2.649-3.533a1.634,1.634,0,0,0-.309-2.546c-6.05-4.946-9.818-11.51-12.953-18.5a52.032,52.032,0,0,1-4.136-19.3c-.088-2.031,0-4.092-.118-6.123-.589-8.184,1.354-15.882,4.269-23.433a152.654,152.654,0,0,1,16.014-29.718c6.153-9.185,13.026-17.81,19.989-26.377,3.444-4.254,6.712-8.655,10.024-13.012,1.045-1.369,1.987-2.811,2.944-4.269,1.781-2.944,1.472-5.358-1.384-7.212-5.049-3.209-6.035-7.934-5.888-13.35a7.86,7.86,0,0,1,5.431-7.9,43.672,43.672,0,0,1,12.349-2.944,48.573,48.573,0,0,1,18.973,1.207,24.346,24.346,0,0,1,6.2,2.826c7.521,5.019,5.328,14.955.456,18.281-.81.545-1.619,1.119-2.443,1.619-3.341,2.061-3.547,2.561-1.472,6.005,1.6,2.738,3.43,5.372,5.225,7.992s3.518,4.916,5.328,7.36a5.225,5.225,0,0,1,.839,5.5c-1.045,2.576-1.913,5.24-3.165,7.7-4.872,9.626-9.877,19.135-14.719,28.776-1.339,2.62-2.591,5.284-3.812,7.948a2.546,2.546,0,0,0,.574,3.327c1.1.927,2,1.089,3.076.132a15.737,15.737,0,0,0,2.944-3.3c2.193-3.547,4.416-7.109,6.344-10.774,4-7.36,7.875-14.881,11.775-22.314.765-1.472,1.59-2.856,2.473-4.224a19.237,19.237,0,0,1,1.663-2.031,13.442,13.442,0,0,1,1.722,1.56c10.421,14.086,20.489,28.378,26.7,44.967a85.119,85.119,0,0,1,4.224,14.822,74.537,74.537,0,0,1,.4,17.369,58.877,58.877,0,0,1-8.684,27.289,44.155,44.155,0,0,1-6.844,8.92,11.16,11.16,0,0,0-1.31,1.472c-.9,1.236-.795,1.6.383,2.649a10.024,10.024,0,0,1,2.017,2.09c3.194,5.431.78,9.95-4.136,11.922a19.574,19.574,0,0,1-3.3.927,1.869,1.869,0,0,0-1.663,2.031c-.074,2.046-.324,4.077-.339,6.123-.074,4.578,0,9.155,0,13.733a14.28,14.28,0,0,0,.118,2.134c1.913.206,3.783.28,5.608.648a68.31,68.31,0,0,1,8.037,2.031,12.836,12.836,0,0,1,3.989,2.326c3.385,2.767,2.767,3.135,1.325,5.652-1.148,1.987-.854,2.841,1.281,3.886s4.416,1.825,6.535,2.8c2.826,1.281,5.667,2.532,8.375,4.018a13.158,13.158,0,0,1,3.5,2.944,3.591,3.591,0,0,1,.132,4.946,16.088,16.088,0,0,1-3.783,3.415,46.511,46.511,0,0,1-12.143,5.137,153.345,153.345,0,0,1-27.849,5.49c-1.619.177-3.224.412-5.063.648-.147,1.472-.4,2.944-.427,4.416a234.276,234.276,0,0,0,.81,25.714q1.56,18.09,4.651,35.974c2.944,17.31,6.373,34.546,12.2,51.178.868,2.458,1.958,4.843,2.944,7.242a13.483,13.483,0,0,0,5.387,6.211c2.62,1.649,5.255,3.312,7.963,4.813a6.418,6.418,0,0,1,3.562,6.2,18.267,18.267,0,0,1-1.207,7.448,9.214,9.214,0,0,0,1.266,9.906,40.573,40.573,0,0,0,3.444,4.151c8.67,8.905,17.383,17.751,26.068,26.642,3.194,3.282,6.418,6.55,9.42,9.994a20.917,20.917,0,0,1,3.076,5.49,7.36,7.36,0,0,1-1.03,7.448c-.971,1.4-2.075,2.738-3.091,4.107s-1.693,2.385-2.649,3.753a20.632,20.632,0,0,0,1.869,1.987,30.568,30.568,0,0,0,2.944,2.134,7.757,7.757,0,0,1,3.592,6.109,113.046,113.046,0,0,1-.088,20.607,9.442,9.442,0,0,1-.294,1.472c-.751,3.282-1.472,3.915-4.828,4.018-4.239.132-8.493.162-12.747.28a23.717,23.717,0,0,0-2.664.28Z" transform="matrix(0.978, -0.208, 0.208, 0.978, -183.375, 10.59)" fill="url(#linear-gradient)"/>
</svg>
