<?xml version="1.0" encoding="utf-8"?>
<!-- Generator: Adobe Illustrator 23.0.1, SVG Export Plug-In . SVG Version: 6.00 Build 0)  -->
<svg version="1.1" id="Layer_1" xmlns="http://www.w3.org/2000/svg" xmlns:xlink="http://www.w3.org/1999/xlink" x="0px" y="0px"
	 viewBox="0 0 90 90" style="enable-background:new 0 0 90 90;" xml:space="preserve">
<style type="text/css">
	.st1{fill:#ede6c10a}
</style>
<g id="pattern" transform="translate(-865.238 -37)">
	<path id="Rectangle_9" class="st1" d="M881.7,100.7l6-6c1.1-1.1,2.9-1.1,4,0l6,6c1.1,1.1,1.1,2.9,0,4l-6,6c-1.1,1.1-2.9,1.1-4,0
		l-6-6C880.6,103.6,880.6,101.8,881.7,100.7z"/>
	<path id="Rectangle_10" class="st1" d="M929,101.7l3-3c0.5-0.5,1.4-0.5,2,0l3,3c0.5,0.5,0.5,1.4,0,2l-3,3c-0.5,0.5-1.4,0.5-2,0
		l-3-3C928.4,103.1,928.4,102.2,929,101.7z"/>
	<path id="Rectangle_11" class="st1" d="M931.1,67.2l-6-6c-1.1-1.1-1.1-2.9,0-4l6-6c1.1-1.1,2.9-1.1,4,0l6,6c1.1,1.1,1.1,2.9,0,4
		l-6,6C934,68.3,932.2,68.3,931.1,67.2z"/>
	<path id="Rectangle_12" class="st1" d="M888.7,63.1l-3-3c-0.5-0.5-0.5-1.4,0-2l3-3c0.5-0.5,1.4-0.5,2,0l3,3c0.5,0.5,0.5,1.4,0,2
		l-3,3C890.1,63.6,889.2,63.6,888.7,63.1z"/>
</g>
</svg>
