<svg id="Layer_1" data-name="Layer 1" xmlns="http://www.w3.org/2000/svg" viewBox="0 0 197.66 241.66"><defs><style>.cls-1{fill:#ffd033;}</style></defs><title>gsg-logo</title><path class="cls-1" d="M339.34,334.81l-25.13-43.49,25.1-43.51a5,5,0,0,0,0-5l-26.77-46.32a5,5,0,0,0-4.33-2.5h-50l-25.7-44.49a5,5,0,0,0-4.33-2.5h0l-53.5,0a5,5,0,0,0-4.33,2.5l-26.74,46.34a5,5,0,0,0,0,5l25.08,43.41L143,288.81a5,5,0,0,0,0,5l26.77,46.32a5,5,0,0,0,4.33,2.5h0l51.16,0,25.16,43.56a5,5,0,0,0,4.33,2.5h0l53.5,0a5,5,0,0,0,4.33-2.5l26.74-46.34A5,5,0,0,0,339.34,334.81Zm-10.13-89.5L305.74,286h-48.5l-23.49-40.66L257.6,204h47.73Zm-176.08,46L177,250H224.7l23.88,41.32-23.85,41.34-47.73,0Zm152.25,87.35-47.72,0-23.88-41.33,23.47-40.67,48.49,0,23.49,40.66Z" transform="translate(-142.35 -147.01)"/></svg>