<svg xmlns="http://www.w3.org/2000/svg" xmlns:xlink="http://www.w3.org/1999/xlink" width="391.499" height="543.534" viewBox="0 0 391.499 543.534">
  <defs>
    <linearGradient id="linear-gradient" x1="-0.271" y1="1" x2="1.181" y2="-0.306" gradientUnits="objectBoundingBox">
      <stop offset="0" stop-color="#ffee95"/>
      <stop offset="1" stop-color="#465d80"/>
    </linearGradient>
  </defs>
  <g id="horse" transform="matrix(0.978, -0.208, 0.208, 0.978, -91.601, 86.135)">
    <path id="Path_11" data-name="Path 11" d="M367.549,434.234H361.14c-1.072-5.3-2.053-11.634-2.922-18.4H93.277c-.529,5.964-.964,12.061-1.228,18.4h-.436a23.889,23.889,0,0,0,0,47.778H367.549a23.889,23.889,0,0,0,0-47.778Z" fill="url(#linear-gradient)"/>
    <path id="Path_12" data-name="Path 12" d="M111.4,202.132a12.132,12.132,0,0,0,16.906,2.894l43.361-30.7a13.884,13.884,0,0,1,17.466,1.159,46.42,46.42,0,0,0,71.821-10.847c2.271,17.5-6.283,44.589-58.633,78.673-48.479,31.564-78.961,64.365-95.4,108.822H357.953a261.1,261.1,0,0,1,23.625-83.285c29.254-47.576,62.116-134.1-14.7-214.269C302.771-12.331,245.741-4.344,213.763,9.358a31.521,31.521,0,0,0-17.092,40.023l-35.865-33.22a6.168,6.168,0,0,0-10.155,6.1l11.835,44.978a53.819,53.819,0,0,0-11.37,12.4L95.547,166.664a12.149,12.149,0,0,0,.326,13.531Z" fill="url(#linear-gradient)"/>
    <path id="Path_13" data-name="Path 13" d="M87.18,399.908H367.548a15.926,15.926,0,1,0,0-31.852H87.18a15.926,15.926,0,1,0,0,31.852Z" fill="url(#linear-gradient)"/>
  </g>
</svg>
